<svg xmlns="http://www.w3.org/2000/svg" viewBox="0 0 51.56 51.56"><defs><style>.cls-1{fill:#4a017d;}</style></defs><title>app</title><g id="Layer_2" data-name="Layer 2"><g id="Layer_1-2" data-name="Layer 1"><g id="Expand"><rect class="cls-1" x="24.79" y="45.61" width="1.98" height="1.98"/><path class="cls-1" d="M15.87,16.86h4a1,1,0,0,0,1-1v-4a1,1,0,0,0-1-1h-4a1,1,0,0,0-1,1v4A1,1,0,0,0,15.87,16.86Zm1-4h2v2h-2Z"/><path class="cls-1" d="M23.8,16.86h4a1,1,0,0,0,1-1v-4a1,1,0,0,0-1-1h-4a1,1,0,0,0-1,1v4A1,1,0,0,0,23.8,16.86Zm1-4h2v2h-2Z"/><path class="cls-1" d="M20.82,23.8v-4a1,1,0,0,0-1-1h-4a1,1,0,0,0-1,1v4a1,1,0,0,0,1,1h4A1,1,0,0,0,20.82,23.8Zm-2-1h-2v-2h2Z"/><path class="cls-1" d="M23.8,24.79h4a1,1,0,0,0,1-1v-4a1,1,0,0,0-1-1h-4a1,1,0,0,0-1,1v4A1,1,0,0,0,23.8,24.79Zm1-4h2v2h-2Z"/><path class="cls-1" d="M23.8,32.72h4a1,1,0,0,0,1-1v-4a1,1,0,0,0-1-1h-4a1,1,0,0,0-1,1v4A1,1,0,0,0,23.8,32.72Zm1-4h2v2h-2Z"/><path class="cls-1" d="M31.73,32.72h4a1,1,0,0,0,1-1v-4a1,1,0,0,0-1-1h-4a1,1,0,0,0-1,1v4A1,1,0,0,0,31.73,32.72Zm1-4h2v2h-2Z"/><path class="cls-1" d="M23.8,40.65h4a1,1,0,0,0,1-1v-4a1,1,0,0,0-1-1h-4a1,1,0,0,0-1,1v4A1,1,0,0,0,23.8,40.65Zm1-4h2v2h-2Z"/><path class="cls-1" d="M31.73,40.65h4a1,1,0,0,0,1-1v-4a1,1,0,0,0-1-1h-4a1,1,0,0,0-1,1v4A1,1,0,0,0,31.73,40.65Zm1-4h2v2h-2Z"/><rect class="cls-1" x="22.81" y="3.97" width="5.95" height="1.98"/><path class="cls-1" d="M38.15,20.67a1,1,0,0,0,1,0l7.93-4a1,1,0,0,0,.45-1.33.92.92,0,0,0-.45-.44l-7.93-4a1,1,0,0,0-1.43.89v7.93A.93.93,0,0,0,38.15,20.67Zm1.51-7.17,4.72,2.37-4.72,2.36Z"/><path class="cls-1" d="M0,27.76V43.63a1,1,0,0,0,1,1h9.92v3a4,4,0,0,0,4,4H36.69a4,4,0,0,0,4-4V24.79h9.92a1,1,0,0,0,1-1V7.93a1,1,0,0,0-1-1H40.65V4a4,4,0,0,0-4-4H14.87a4,4,0,0,0-4,4v22.8H1A1,1,0,0,0,0,27.76Zm49.58-5H34.7V15.87a1,1,0,0,0-.28-.71l-1.29-1.28,1.28-1.27a1,1,0,0,0,.28-.71v-3H49.57V22.81ZM12.89,4a2,2,0,0,1,2-2H36.69a2,2,0,0,1,2,2v3h-5a1,1,0,0,0-1,1v3.56L31,13.19a1,1,0,0,0,0,1.4l1.7,1.7V23.8a1,1,0,0,0,1,1h5V47.6a2,2,0,0,1-2,2H14.87a2,2,0,0,1-2-2v-3h5a1,1,0,0,0,1-1V40.07l1.7-1.7a1,1,0,0,0,0-1.4l-1.7-1.68V27.76a1,1,0,0,0-1-1h-5ZM2,28.76H16.86V35.7a1,1,0,0,0,.28.7l1.28,1.28L17.14,39a1,1,0,0,0-.28.7v3H2Z"/><rect class="cls-1" x="3.97" y="30.74" width="1.98" height="1.98"/><rect class="cls-1" x="7.93" y="30.74" width="6.94" height="1.98"/><rect class="cls-1" x="3.97" y="34.7" width="10.91" height="1.98"/><rect class="cls-1" x="3.97" y="38.67" width="10.91" height="1.98"/><rect class="cls-1" x="6.94" y="7.93" width="1.98" height="15.87"/><rect class="cls-1" x="42.64" y="27.76" width="1.98" height="13.88"/><rect class="cls-1" x="42.64" y="43.63" width="1.98" height="1.98"/></g></g></g></svg>