<svg xmlns="http://www.w3.org/2000/svg" viewBox="0 0 63.19 63.21"><defs><style>.cls-1{fill:#4a017d;}</style></defs><title>coding</title><g id="Layer_2" data-name="Layer 2"><g id="Layer_1-2" data-name="Layer 1"><g id="coding"><path class="cls-1" d="M60,12.64H48.45V1.06A1.05,1.05,0,0,0,47.4,0H15.81a1.05,1.05,0,0,0-1.06,1.06V12.64H3.17A3.19,3.19,0,0,0,0,15.81v33.7a3.18,3.18,0,0,0,3.17,3.16H24l-.7,4.22H22.12a1.07,1.07,0,0,0-.84.42l-3.17,4.22A1.05,1.05,0,0,0,18.32,63a1,1,0,0,0,.64.21H44.23a1.06,1.06,0,0,0,1.06-1.06,1.16,1.16,0,0,0-.21-.64l-3.17-4.22a1.09,1.09,0,0,0-.84-.41H39.85l-.7-4.22H60a3.19,3.19,0,0,0,3.16-3.17V15.81A3.17,3.17,0,0,0,60,12.64ZM16.86,2.11h29.5V23.18H16.86ZM40.56,59l1.58,2.11H21.07L22.65,59ZM25.48,56.88l.7-4.22H37l.7,4.22ZM61.1,49.51A1.06,1.06,0,0,1,60,50.56H3.17a1.05,1.05,0,0,1-1.06-1.05V46.34h59Zm0-5.26h-59V15.81a1.05,1.05,0,0,1,1.06-1.06H14.75v9.48a1.06,1.06,0,0,0,1.06,1.06h31.6a1.05,1.05,0,0,0,1.06-1.06V14.75H60.06a1.06,1.06,0,0,1,1,1.06V44.25Z"/><path class="cls-1" d="M57.93,27.38H45.29a1.06,1.06,0,0,0-1.06,1.06v1H35.81v-1a1.06,1.06,0,0,0-1.06-1.06H28.44a1.06,1.06,0,0,0-1.06,1.06v1H19v-1a1.05,1.05,0,0,0-1.06-1.06H5.28a1.06,1.06,0,0,0-1.06,1.06v4.22a1.05,1.05,0,0,0,1.06,1.05H17.92a1,1,0,0,0,1-1.05V31.6H27.4v1.06a1,1,0,0,0,1.05,1.05h2.11v2.11H28.45a1.06,1.06,0,0,0-1.05,1.06V41.1a1,1,0,0,0,1.05,1h6.32a1,1,0,0,0,1-1V36.88a1.05,1.05,0,0,0-1-1.06H32.66V33.71h2.11a1,1,0,0,0,1-1.05V31.6h8.43v1.06a1,1,0,0,0,1,1.05H58a1,1,0,0,0,1-1.05V28.44A1.08,1.08,0,0,0,57.93,27.38ZM16.86,31.6H6.33V29.49H16.86Zm16.85,6.32V40H29.49V37.92Zm0-6.32H29.49V29.49h4.22Zm23.17,0H46.34V29.49H56.88Z"/><path class="cls-1" d="M25.59,5.58l-6.31,6.31a1,1,0,0,0,0,1.49l6.31,6.31,1.49-1.48L21.5,12.63l5.58-5.58Z"/><path class="cls-1" d="M37.61,5.58,36.13,7.07l5.58,5.57-5.58,5.58,1.48,1.49,6.32-6.31a1.06,1.06,0,0,0,0-1.49Z"/><rect class="cls-1" x="21.61" y="11.59" width="19.98" height="2.11" transform="translate(9.61 38.62) rotate(-71.55)"/></g></g></g></svg>