<svg xmlns="http://www.w3.org/2000/svg" viewBox="0 0 62.89 51.77"><defs><style>.cls-1{fill:#4a017d;}</style></defs><title>design</title><g id="Layer_2" data-name="Layer 2"><g id="Layer_1-2" data-name="Layer 1"><path class="cls-1" d="M58.84,0H4.07A4.09,4.09,0,0,0,0,4.07V38.55a4.08,4.08,0,0,0,4.07,4.06H25l-1.36,4.07H20.29a1,1,0,0,0-1,1v2H10.14a1,1,0,1,0,0,2H54.77a1,1,0,0,0,0-2H43.61v-2a1,1,0,0,0-1-1H39.28l-1.36-4.07h20.9a4.08,4.08,0,0,0,4.07-4.06V4.07A4.06,4.06,0,0,0,58.84,0ZM41.59,48.68v1H21.3v-1Zm-15.83-2,1.36-4.07h8.67l1.36,4.07Zm35.1-8.11a2,2,0,0,1-2,2H4.07a2,2,0,0,1-2-2v-2H60.86ZM17.21,25.36l-.38,9.14H15.64l-.37-9.14Zm-1.8-2,.67-4.07h.31l.67,4.07Zm.84-6.07c-1.11,0-2-1.4-2-3.05,0-1,1.06-2.54,2-3.63.87,1,2,2.51,2,3.63C18.27,15.85,17.33,17.25,16.25,17.25Zm11-2,.13.22v.78H23.34v-.78l.13-.22Zm-2.81-2,.89-1.79.9,1.79Zm2.92,5.07V34.48H23.32V18.25Zm9.13-4.05h3v2h-1a1,1,0,1,0,0,2h1v2h-3a1,1,0,0,0,0,2.05h3v2h-1a1,1,0,1,0,0,2.05h1v2h-3a1,1,0,0,0,0,2h3v4.07H32.48V10.14h7.09v2h-3a1,1,0,0,0,0,2ZM48.7,26.36v8.12H44.64V26.36Zm-4.06-2v-.77l2-4.07,2,4.07v.77ZM60.86,34.48H50.71V23.32a1.2,1.2,0,0,0-.11-.46l-3-6.09a1,1,0,0,0-1.36-.46,1.13,1.13,0,0,0-.46.46l-3,6.11a1,1,0,0,0-.11.46V34.5h-1V9.14a1,1,0,0,0-1-1H31.45a1,1,0,0,0-1,1V34.5h-1V15.23a1.15,1.15,0,0,0-.1-.46l-3-6.09a1,1,0,0,0-1.36-.46,1.05,1.05,0,0,0-.45.46L21.4,14.77a1.15,1.15,0,0,0-.1.46V34.5H18.83l.42-10.1v-.08a.18.18,0,0,0,0-.1h0l-.94-5.64a5.44,5.44,0,0,0,2-4.33c0-2.61-3-5.49-3.36-5.82a1,1,0,0,0-1.37,0c-.36.31-3.36,3.21-3.36,5.82a5.41,5.41,0,0,0,2,4.33l-.94,5.64h0a.18.18,0,0,1,0,.1v.08l.42,10.1H2V4.07a2,2,0,0,1,2-2H58.84a2,2,0,0,1,2,2Z"/><path class="cls-1" d="M11.16,37.52H5.07a1,1,0,0,0,0,2h6.09a1,1,0,0,0,0-2Z"/><path class="cls-1" d="M15.23,37.52h-1a1,1,0,0,0,0,2h1a1,1,0,0,0,0-2Z"/><path class="cls-1" d="M25.36,19.27a1,1,0,0,0-1,1V31.45a1,1,0,1,0,2.05,0V20.29A1,1,0,0,0,25.36,19.27Z"/><path class="cls-1" d="M46.66,27.39a1,1,0,0,0-1,1v3a1,1,0,1,0,2,0v-3A1,1,0,0,0,46.66,27.39Z"/><path class="cls-1" d="M5.09,6.09H13.2a1,1,0,1,0,0-2H5.09a1,1,0,0,0,0,2Z"/><path class="cls-1" d="M5.09,9.14h2a1,1,0,0,0,0-2.05h-2a1,1,0,0,0,0,2.05Z"/><path class="cls-1" d="M53.77,32.45h4.07a1,1,0,0,0,0-2H53.77a1,1,0,0,0,0,2Z"/><path class="cls-1" d="M56.82,29.41h1a1,1,0,0,0,0-2h-1a1,1,0,1,0,0,2Z"/></g></g></svg>